<?xml version="1.0" encoding="UTF-8" standalone="no"?>
<!-- Created with Inkscape (http://www.inkscape.org/) -->

<svg
   width="6.6145792mm"
   height="6.614584mm"
   viewBox="0 0 6.6145792 6.614584"
   version="1.1"
   id="svg281"
   sodipodi:docname="call1.svg"
   inkscape:version="1.1.2 (0a00cf5339, 2022-02-04)"
   xmlns:inkscape="http://www.inkscape.org/namespaces/inkscape"
   xmlns:sodipodi="http://sodipodi.sourceforge.net/DTD/sodipodi-0.dtd"
   xmlns="http://www.w3.org/2000/svg"
   xmlns:svg="http://www.w3.org/2000/svg">
  <sodipodi:namedview
     id="namedview24"
     pagecolor="#ffffff"
     bordercolor="#666666"
     borderopacity="1.0"
     inkscape:pageshadow="2"
     inkscape:pageopacity="0.0"
     inkscape:pagecheckerboard="0"
     inkscape:document-units="mm"
     showgrid="false"
     inkscape:zoom="31.039997"
     inkscape:cx="3.4793818"
     inkscape:cy="12.500001"
     inkscape:window-width="1920"
     inkscape:window-height="1011"
     inkscape:window-x="0"
     inkscape:window-y="0"
     inkscape:window-maximized="1"
     inkscape:current-layer="svg281" />
  <defs
     id="defs278" />
  <g
     id="layer1"
     transform="translate(-176.50483,-104.57998)"
     style="fill:#65352e;fill-opacity:1">
    <g
       id="g314746"
       transform="matrix(0.01291909,0,0,0.01291909,176.50483,104.57998)"
       style="fill:#65352e;fill-opacity:1">
      <g
         id="g314691"
         style="fill:#65352e;fill-opacity:1">
        <g
           id="g314689"
           style="fill:#65352e;fill-opacity:1">
          <path
             d="m 436.992,74.953 c -99.989,-99.959 -262.08,-99.935 -362.039,0.055 -99.959,99.99 -99.935,262.08 0.055,362.039 99.99,99.959 262.08,99.935 362.039,-0.055 C 485.053,388.971 512.015,323.846 512,255.945 511.986,188.055 485.005,122.951 436.992,74.953 Z m -49.289,281.652 c -0.011,0.011 -0.022,0.023 -0.034,0.034 v -0.085 l -12.971,12.885 c -16.775,16.987 -41.206,23.976 -64.427,18.432 -23.395,-6.262 -45.635,-16.23 -65.877,-29.525 -18.806,-12.019 -36.234,-26.069 -51.968,-41.899 -14.477,-14.371 -27.483,-30.151 -38.827,-47.104 -12.408,-18.242 -22.229,-38.114 -29.184,-59.051 -7.973,-24.596 -1.366,-51.585 17.067,-69.717 l 15.189,-15.189 c 4.223,-4.242 11.085,-4.257 15.326,-0.034 0.011,0.011 0.023,0.022 0.034,0.034 l 47.957,47.957 c 4.242,4.223 4.257,11.085 0.034,15.326 -0.011,0.011 -0.022,0.022 -0.034,0.034 l -28.16,28.16 c -8.08,7.992 -9.096,20.692 -2.389,29.867 10.185,13.978 21.456,27.131 33.707,39.339 13.659,13.718 28.508,26.197 44.373,37.291 9.167,6.394 21.595,5.316 29.525,-2.56 l 27.221,-27.648 c 4.223,-4.242 11.085,-4.257 15.326,-0.034 0.011,0.011 0.022,0.022 0.034,0.034 l 48.043,48.128 c 4.243,4.222 4.258,11.083 0.035,15.325 z"
             id="path314687"
             style="fill:#65352e;fill-opacity:1" />
        </g>
      </g>
      <g
         id="g314693"
         style="fill:#65352e;fill-opacity:1" />
      <g
         id="g314695"
         style="fill:#65352e;fill-opacity:1" />
      <g
         id="g314697"
         style="fill:#65352e;fill-opacity:1" />
      <g
         id="g314699"
         style="fill:#65352e;fill-opacity:1" />
      <g
         id="g314701"
         style="fill:#65352e;fill-opacity:1" />
      <g
         id="g314703"
         style="fill:#65352e;fill-opacity:1" />
      <g
         id="g314705"
         style="fill:#65352e;fill-opacity:1" />
      <g
         id="g314707"
         style="fill:#65352e;fill-opacity:1" />
      <g
         id="g314709"
         style="fill:#65352e;fill-opacity:1" />
      <g
         id="g314711"
         style="fill:#65352e;fill-opacity:1" />
      <g
         id="g314713"
         style="fill:#65352e;fill-opacity:1" />
      <g
         id="g314715"
         style="fill:#65352e;fill-opacity:1" />
      <g
         id="g314717"
         style="fill:#65352e;fill-opacity:1" />
      <g
         id="g314719"
         style="fill:#65352e;fill-opacity:1" />
      <g
         id="g314721"
         style="fill:#65352e;fill-opacity:1" />
    </g>
  </g>
</svg>
