<?xml version="1.0" encoding="UTF-8" standalone="no"?>
<!-- Created with Inkscape (http://www.inkscape.org/) -->

<svg
   width="26.454418mm"
   height="26.458344mm"
   viewBox="0 0 26.454418 26.458344"
   version="1.1"
   id="svg1793"
   xmlns="http://www.w3.org/2000/svg"
   xmlns:svg="http://www.w3.org/2000/svg">
  <defs
     id="defs1790" />
  <g
     id="layer1"
     transform="translate(-6.292121,-101.59042)">
    <path
       style="fill:#030303;stroke-width:0.0516763"
       d="m 6.443121,127.89776 c -0.091,-0.091 -0.151,-0.20553 -0.151,-0.28821 0,-0.0826 0.06,-0.19719 0.151,-0.28819 0.147001,-0.147 0.165201,-0.151 0.671782,-0.151 H 7.635645 V 114.5397 c 0,-6.94687 0.014,-12.6683 0.0322,-12.71433 0.0944,-0.24593 -0.465021,-0.23486 11.853475,-0.23486 12.318516,0 11.759115,-0.012 11.853495,0.23486 0.018,0.046 0.0322,5.76745 0.0322,12.71432 v 12.63066 h 0.520741 c 0.506642,0 0.524822,0.004 0.671782,0.151 0.196001,0.19599 0.196001,0.38039 0,0.57641 l -0.151001,0.151 H 19.52146 6.594402 Z M 9.39429,115.401 c 0.0013,-9.17018 0.016,-11.78741 0.0646,-11.85129 0.1546,-0.20148 0.170801,-0.20224 4.326252,-0.20224 4.155373,0 4.171573,7.3e-4 4.326253,0.20224 0.049,0.0638 0.0634,2.68111 0.0646,11.85129 l 0.0017,11.76931 h 0.439261 0.439241 V 114.81963 102.46896 H 13.785202 8.514207 v 12.35068 12.35067 h 0.43926 0.439242 z m 7.904843,0.29714 v -11.47218 h -3.51399 -3.513991 v 11.47218 11.47217 h 3.513991 3.51399 z m -1.497584,3.03545 c -0.257521,-0.1328 -0.257821,-0.1364 -0.258641,-3.02509 -9.22e-4,-2.97059 -0.004,-2.94243 0.309181,-3.05148 0.180601,-0.063 0.286941,-0.0367 0.452282,0.11219 l 0.116199,0.10461 v 2.82418 2.82419 l -0.116199,0.1086 c -0.154802,0.1446 -0.346042,0.1836 -0.502822,0.1028 z m 5.064914,-3.33259 c 0.0013,-9.17018 0.016,-11.78741 0.0646,-11.85129 0.154601,-0.20148 0.170801,-0.20224 4.326253,-0.20224 4.155373,0 4.171573,7.3e-4 4.326253,0.20224 0.049,0.0638 0.0634,2.68111 0.0646,11.85129 l 0.0017,11.76931 h 0.439261 0.439241 v -12.35068 -12.35067 h -5.271025 -5.270995 v 12.35068 12.35067 h 0.439241 0.43926 z m 7.904844,0.29714 v -11.47218 h -3.51399 -3.514011 v 11.47218 11.47217 h 3.514011 3.51399 z m -5.839437,3.06517 c -0.0426,-0.016 -0.1298,-0.077 -0.1938,-0.1352 l -0.116201,-0.1058 v -2.82419 -2.82419 l 0.116201,-0.1046 c 0.064,-0.0576 0.1582,-0.1196 0.2096,-0.13759 0.1486,-0.0526 0.424541,0.0916 0.493381,0.25773 0.046,0.11121 0.0582,0.85214 0.0476,2.89884 -0.014,2.67124 -0.018,2.75222 -0.1176,2.85084 -0.114,0.1118 -0.319001,0.17 -0.439261,0.1242 z"
       id="path223106" />
  </g>
</svg>
