<?xml version="1.0" encoding="UTF-8" standalone="no"?>
<!-- Created with Inkscape (http://www.inkscape.org/) -->

<svg
   width="26.457893mm"
   height="26.458334mm"
   viewBox="0 0 26.457893 26.458334"
   version="1.1"
   id="svg2017"
   xmlns="http://www.w3.org/2000/svg"
   xmlns:svg="http://www.w3.org/2000/svg">
  <defs
     id="defs2014" />
  <g
     id="layer1"
     transform="translate(-81.305844,-115.36877)">
    <path
       id="path223126"
       style="fill:#040404;stroke-width:0.226786"
       transform="matrix(0.22483721,0,0,0.22483721,218.18296,118.17309)"
       d="m -549.94531,-12.472656 c -28.42382,0 -42.71046,0.0016 -49.95703,0.05859 -3.62329,0.02847 -5.47859,0.06846 -6.5,0.134765 -0.51071,0.03315 -0.81055,0.06659 -1.07422,0.136719 -0.26368,0.07013 -0.55317,0.279727 -0.625,0.351562 -0.0719,0.07186 -0.28137,0.361258 -0.35156,0.625 -0.0702,0.263743 -0.10356,0.563495 -0.13672,1.074219 -0.0663,1.0214479 -0.10632,2.8767085 -0.13477,6.5000001 -0.0569,7.2465832 -0.0586,21.5332709 -0.0586,49.9570309 0,28.423817 0.002,42.710462 0.0586,49.957032 0.0285,3.623285 0.0685,5.478584 0.13477,6.500004 0.0331,0.5107 0.0666,0.81054 0.13672,1.07421 0.0701,0.26368 0.27972,0.55317 0.35156,0.625 0.0717,0.0718 0.36124,0.28128 0.625,0.35157 0.26375,0.0703 0.56347,0.10346 1.07422,0.13672 1.02149,0.0665 2.87669,0.10802 6.5,0.13671 7.2466,0.0574 21.5332,0.0586 49.95703,0.0586 28.42383,0 42.71043,-0.001 49.95703,-0.0586 3.6233,-0.0287 5.47853,-0.0702 6.5,-0.13671 0.51073,-0.0333 0.81053,-0.0665 1.07422,-0.13672 0.26368,-0.0702 0.55326,-0.27983 0.625,-0.35157 0.0719,-0.0718 0.28137,-0.36125 0.35156,-0.625 0.0702,-0.26374 0.10356,-0.56349 0.13672,-1.07421 0.0663,-1.02144 0.10631,-2.876719 0.13476,-6.500004 0.0569,-7.246571 0.0586,-21.533216 0.0586,-49.957032 0,-28.423762 -0.002,-42.7104476 -0.0586,-49.9570309 -0.0285,-3.6232916 -0.0685,-5.4785771 -0.13476,-6.5000001 -0.0332,-0.510711 -0.0666,-0.810545 -0.13672,-1.074219 -0.0701,-0.263673 -0.27972,-0.553159 -0.35156,-0.625 -0.0718,-0.07183 -0.36133,-0.281432 -0.625,-0.351562 -0.26368,-0.07013 -0.56351,-0.103569 -1.07422,-0.136719 -1.02141,-0.0663 -2.87672,-0.106291 -6.5,-0.134765 -7.24657,-0.05695 -21.53321,-0.05859 -49.95703,-0.05859 z m -54.32813,4.5117185 h 33.34961 33.35156 v 8.9707031 8.9707032 h -33.35156 -33.34961 V 1.0097656 Z m 71.21094,0 h 18.72266 18.72265 v 8.9707031 8.9707032 h -18.72265 -18.72266 V 1.0097656 Z m -71.21094,22.4511715 h 14.30274 14.29882 l -0.0547,9.136719 -0.0547,9.148438 -14.25195,0.05469 -14.24024,0.05469 v -9.195313 z m 108.65625,0 v 9.083985 9.083984 h -37.88867 -37.88476 l 0.0566,-9.023437 0.0527,-9.033204 37.83594,-0.05469 z m -108.65625,22.677735 h 47.63867 47.63672 v 9.197265 9.197266 h -47.63672 -47.63867 v -9.197266 z m 99.78516,0 h 4.43555 4.43554 v 9.197265 9.197266 h -4.43554 -4.43555 v -9.197266 z m -99.78516,22.679687 h 54.32813 54.32812 v 9.197266 9.197266 h -54.32812 -54.32813 v -9.197266 z m 0,22.904297 h 25.98047 25.97852 v 8.970703 8.970704 h -25.97852 -25.98047 v -8.970704 z m 56.47071,0 h 26.09179 26.09375 v 8.970703 8.970704 h -26.09375 -26.09179 v -8.970704 z" />
  </g>
</svg>
