<?xml version="1.0" encoding="UTF-8" standalone="no"?>
<!-- Created with Inkscape (http://www.inkscape.org/) -->

<svg
   width="36.835213mm"
   height="26.248039mm"
   viewBox="0 0 36.835213 26.248039"
   version="1.1"
   id="svg1905"
   xmlns="http://www.w3.org/2000/svg"
   xmlns:svg="http://www.w3.org/2000/svg">
  <defs
     id="defs1902" />
  <g
     id="layer1"
     transform="translate(21.096731,-119.30124)">
    <path
       id="path223188"
       style="fill:#000000;stroke-width:0.0826822"
       transform="translate(-120.54143,-52.153842)"
       d="m 105.29492,171.45508 c -0.7828,0 -1.18002,0.001 -1.39062,0.0254 -0.21061,0.024 -0.21458,0.0486 -0.31446,0.14844 -0.0937,0.0939 -0.12272,0.11696 -0.14648,0.27148 -0.0239,0.15527 -0.0273,0.4374 -0.0273,0.97656 v 1.11914 a 0.1064174,0.1064174 0 0 1 -0.10547,0.10547 h -1.45117 c -0.71493,0 -1.07867,0.003 -1.27344,0.0273 -0.19478,0.024 -0.20391,0.0477 -0.30274,0.14648 l -0.17382,0.17188 v 4.83984 4.8418 l 0.17382,0.17187 a 0.1064174,0.1064174 0 0 1 0,0.002 c 0.0988,0.0992 0.10603,0.12261 0.30078,0.14649 0.19476,0.0239 0.56044,0.0254 1.2754,0.0254 h 1.45117 a 0.1064174,0.1064174 0 0 1 0.10547,0.10547 v 0.66015 0.66211 a 0.1064174,0.1064174 0 0 1 -0.10547,0.10547 h -1.78125 c -0.59167,0 -1.02415,-0.008 -1.33203,0.01 -0.30789,0.0182 -0.481038,0.066 -0.576176,0.15234 -0.09514,0.0863 -0.144197,0.23288 -0.164063,0.50977 -0.01986,0.27689 -0.0098,0.66991 -0.0098,1.20703 0,0.7828 0.0014,1.18002 0.02539,1.39062 0.02404,0.21061 0.04856,0.21458 0.148438,0.31446 0.07713,0.0772 0.127757,0.11436 0.207031,0.13867 0.07927,0.0243 0.194045,0.0352 0.378905,0.0352 h 0.45703 a 0.1064174,0.1064174 0 0 1 0.10547,0.10547 v 3.76563 3.7207 l 0.17188,0.17188 c 0.0999,0.0997 0.10579,0.1224 0.3164,0.14648 0.21061,0.0241 0.60784,0.0273 1.39063,0.0273 0.7828,0 1.18002,-0.001 1.39062,-0.0254 0.21061,-0.024 0.21458,-0.0486 0.31446,-0.14843 l 0.17382,-0.17188 v -2.0664 -2.11329 a 0.1064174,0.1064174 0 0 1 0.10547,-0.10546 h 13.23047 13.22852 a 0.1064174,0.1064174 0 0 1 0.10547,0.10546 v 2.11329 2.0664 l 0.17187,0.17188 c 0.0999,0.0997 0.10579,0.1224 0.31641,0.14648 0.21061,0.0241 0.60784,0.0273 1.39062,0.0273 0.7828,0 1.18002,-0.001 1.39063,-0.0254 0.2106,-0.024 0.21458,-0.0486 0.31445,-0.14843 l 0.17383,-0.17188 v -3.7207 -3.76563 a 0.1064174,0.1064174 0 0 1 0.10547,-0.10547 h 0.45898 c 0.18484,0 0.29824,-0.0109 0.37695,-0.0352 0.0787,-0.0243 0.12979,-0.0614 0.20704,-0.13867 0.0985,-0.0985 0.12251,-0.10485 0.14648,-0.31446 0.0241,-0.21061 0.0273,-0.60783 0.0273,-1.39062 0,-0.53714 0.0101,-0.93014 -0.01,-1.20703 -0.0199,-0.27689 -0.0689,-0.42347 -0.16406,-0.50977 -0.0951,-0.0863 -0.26829,-0.13418 -0.57618,-0.15234 -0.30788,-0.0182 -0.74037,-0.01 -1.33203,-0.01 h -1.78125 a 0.1064174,0.1064174 0 0 1 -0.10547,-0.10547 v -0.66211 -0.66015 a 0.1064174,0.1064174 0 0 1 0.10547,-0.10547 h 1.45117 c 0.71494,0 1.08009,-0.003 1.27539,-0.0273 0.19531,-0.024 0.20404,-0.0478 0.30274,-0.14649 l 0.17383,-0.17187 v -4.8418 -4.83984 l -0.17383,-0.17188 a 0.1064174,0.1064174 0 0 1 0,-0.002 c -0.0987,-0.0991 -0.10744,-0.1226 -0.30274,-0.14649 -0.19529,-0.0239 -0.56043,-0.0254 -1.27539,-0.0254 h -1.45117 a 0.1064174,0.1064174 0 0 1 -0.10547,-0.10547 v -1.11914 c 0,-0.53917 -0.004,-0.82129 -0.0273,-0.97656 -0.0238,-0.15527 -0.0515,-0.17649 -0.14648,-0.27148 -0.0985,-0.0985 -0.10485,-0.12252 -0.31446,-0.14649 -0.21061,-0.0241 -0.60784,-0.0273 -1.39062,-0.0273 -0.7828,0 -1.18002,0.001 -1.39063,0.0254 -0.2106,0.024 -0.21458,0.0486 -0.31445,0.14844 -0.0937,0.0939 -0.12272,0.11696 -0.14649,0.27148 -0.0239,0.15527 -0.0273,0.4374 -0.0273,0.97656 v 1.11914 a 0.1064174,0.1064174 0 0 1 -0.10547,0.10547 H 117.86328 107.2793 a 0.1064174,0.1064174 0 0 1 -0.10547,-0.10547 v -1.11914 c 0,-0.53918 -0.004,-0.82129 -0.0273,-0.97656 -0.0238,-0.15527 -0.0514,-0.17651 -0.14648,-0.27148 -0.0985,-0.0985 -0.10485,-0.12252 -0.31445,-0.14649 -0.21061,-0.0241 -0.60784,-0.0273 -1.39063,-0.0273 z m -0.66211,1.11328 h 0.66211 0.66211 a 0.1064174,0.1064174 0 0 1 0.10547,0.10547 v 0.66015 0.66211 a 0.1064174,0.1064174 0 0 1 -0.10547,0.10547 h -0.66211 -0.66211 a 0.1064174,0.1064174 0 0 1 -0.10547,-0.10547 v -0.66211 -0.66015 a 0.1064174,0.1064174 0 0 1 0.10547,-0.10547 z m 25.13672,0 h 0.66016 0.66211 a 0.1064174,0.1064174 0 0 1 0.10547,0.10547 v 0.66015 0.66211 a 0.1064174,0.1064174 0 0 1 -0.10547,0.10547 h -0.66211 -0.66016 a 0.1064174,0.1064174 0 0 1 -0.10547,-0.10547 v -0.66211 -0.66015 a 0.1064174,0.1064174 0 0 1 0.10547,-0.10547 z m -28.44336,2.64453 h 16.53711 16.53516 a 0.1064174,0.1064174 0 0 1 0.10547,0.10547 v 1.6543 1.65429 a 0.1064174,0.1064174 0 0 1 -0.10547,0.10547 h -16.53516 -16.53711 a 0.1064174,0.1064174 0 0 1 -0.10547,-0.10547 v -1.65429 -1.6543 a 0.1064174,0.1064174 0 0 1 0.10547,-0.10547 z m 0,4.63086 h 16.53711 16.53516 a 0.1064174,0.1064174 0 0 1 0.10547,0.10547 v 1.6543 1.65234 a 0.1064174,0.1064174 0 0 1 -0.10547,0.10547 h -16.53516 -16.53711 a 0.1064174,0.1064174 0 0 1 -0.10547,-0.10547 v -1.65234 -1.6543 a 0.1064174,0.1064174 0 0 1 0.10547,-0.10547 z m 3.30664,4.63086 h 0.66211 0.66211 a 0.1064174,0.1064174 0 0 1 0.10547,0.10547 v 0.66015 0.66211 a 0.1064174,0.1064174 0 0 1 -0.10547,0.10547 h -0.66211 -0.66211 a 0.1064174,0.1064174 0 0 1 -0.10547,-0.10547 v -0.66211 -0.66015 a 0.1064174,0.1064174 0 0 1 0.10547,-0.10547 z m 2.64649,0 h 10.58398 10.58203 a 0.1064174,0.1064174 0 0 1 0.10547,0.10547 v 0.66015 0.66211 a 0.1064174,0.1064174 0 0 1 -0.10547,0.10547 H 117.86328 107.2793 a 0.1064174,0.1064174 0 0 1 -0.10547,-0.10547 v -0.66211 -0.66015 a 0.1064174,0.1064174 0 0 1 0.10547,-0.10547 z m 22.49023,0 h 0.66016 0.66211 a 0.1064174,0.1064174 0 0 1 0.10547,0.10547 v 0.66015 0.66211 a 0.1064174,0.1064174 0 0 1 -0.10547,0.10547 h -0.66211 -0.66016 a 0.1064174,0.1064174 0 0 1 -0.10547,-0.10547 v -0.66211 -0.66015 a 0.1064174,0.1064174 0 0 1 0.10547,-0.10547 z m -29.10547,2.64453 h 17.19922 17.19727 a 0.1064174,0.1064174 0 0 1 0.10547,0.10547 v 0.66211 0.66211 a 0.1064174,0.1064174 0 0 1 -0.10547,0.10547 h -17.19727 -17.19922 a 0.1064174,0.1064174 0 0 1 -0.10547,-0.10547 v -0.66211 -0.66211 a 0.1064174,0.1064174 0 0 1 0.10547,-0.10547 z m 1.32422,2.64648 h 0.66016 0.66211 a 0.1064174,0.1064174 0 0 1 0.10547,0.10547 v 3.30664 3.3086 a 0.1064174,0.1064174 0 0 1 -0.10547,0.10547 h -0.66211 -0.66016 a 0.1064174,0.1064174 0 0 1 -0.10547,-0.10547 v -3.3086 -3.30664 a 0.1064174,0.1064174 0 0 1 0.10547,-0.10547 z m 2.64453,0 h 13.23047 13.22852 a 0.1064174,0.1064174 0 0 1 0.10547,0.10547 v 0.99219 0.99219 a 0.1064174,0.1064174 0 0 1 -0.10547,0.10547 h -13.22852 -13.23047 a 0.1064174,0.1064174 0 0 1 -0.10547,-0.10547 v -0.99219 -0.99219 a 0.1064174,0.1064174 0 0 1 0.10547,-0.10547 z m 27.78125,0 h 0.66211 0.66211 a 0.1064174,0.1064174 0 0 1 0.10547,0.10547 v 3.30664 3.3086 a 0.1064174,0.1064174 0 0 1 -0.10547,0.10547 h -0.66211 -0.66211 a 0.1064174,0.1064174 0 0 1 -0.10547,-0.10547 v -3.3086 -3.30664 a 0.1064174,0.1064174 0 0 1 0.10547,-0.10547 z" />
  </g>
</svg>
