<?xml version="1.0" encoding="UTF-8" standalone="no"?>
<!-- Created with Inkscape (http://www.inkscape.org/) -->

<svg
   width="7.9805808mm"
   height="7.2020249mm"
   viewBox="0 0 7.9805808 7.2020249"
   version="1.1"
   id="svg245"
   xmlns="http://www.w3.org/2000/svg"
   xmlns:svg="http://www.w3.org/2000/svg">
  <defs
     id="defs242" />
  <g
     id="layer1"
     transform="translate(-14.610959,-224.57435)">
    <path
       style="fill:#483737;fill-opacity:1;stroke-width:0.0155895"
       d="m 15.15597,231.74123 c -0.27126,-0.0928 -0.4544,-0.28913 -0.52048,-0.55792 -0.0633,-0.25747 0.009,-0.51318 0.20089,-0.70846 0.0996,-0.10146 0.18933,-0.15844 0.3228,-0.20495 0.0792,-0.0276 0.21684,-0.0288 3.44207,-0.0288 3.22522,0 3.36284,0.001 3.44207,0.0288 0.13346,0.0465 0.2232,0.10349 0.32279,0.20495 0.19168,0.19528 0.26419,0.45099 0.20089,0.70846 -0.0667,0.27153 -0.26217,0.47742 -0.53381,0.5624 -0.0976,0.0305 -0.14865,0.031 -3.43748,0.0306 l -3.33841,-4.1e-4 z m 0.13098,-2.80163 c -0.32099,-0.0476 -0.57134,-0.27291 -0.6534,-0.58796 -0.10042,-0.38553 0.14328,-0.79594 0.5458,-0.91916 0.0895,-0.0274 0.23653,-0.0286 3.4219,-0.0286 3.18536,0 3.33238,0.001 3.4219,0.0286 0.40251,0.12322 0.64622,0.53363 0.5458,0.91916 -0.0703,0.26978 -0.26554,0.4755 -0.53801,0.56683 -0.0822,0.0275 -0.22335,0.0288 -3.37513,0.0308 -1.80916,10e-4 -3.32515,-0.003 -3.36886,-0.01 z m -0.0219,-2.83255 c -0.15945,-0.0271 -0.30642,-0.10627 -0.42871,-0.23084 -0.19168,-0.19528 -0.26419,-0.45099 -0.20089,-0.70846 0.0668,-0.27153 0.26217,-0.47742 0.53381,-0.5624 0.0976,-0.0305 0.14923,-0.031 3.43194,-0.031 3.28272,0 3.33437,4.6e-4 3.43195,0.031 0.27164,0.085 0.46705,0.29087 0.53381,0.5624 0.0941,0.38262 -0.11843,0.75936 -0.51489,0.91285 -0.0732,0.0283 -0.18586,0.0294 -3.41189,0.0312 -1.83489,0.001 -3.35369,-10e-4 -3.37513,-0.005 z"
       id="path58016" />
  </g>
</svg>
