<?xml version="1.0" encoding="UTF-8" standalone="no"?>
<!-- Created with Inkscape (http://www.inkscape.org/) -->

<svg
   width="26.454002mm"
   height="26.458334mm"
   viewBox="0 0 26.454002 26.458334"
   version="1.1"
   id="svg2193"
   inkscape:version="1.1.2 (0a00cf5339, 2022-02-04)"
   sodipodi:docname="staircases.svg"
   xmlns:inkscape="http://www.inkscape.org/namespaces/inkscape"
   xmlns:sodipodi="http://sodipodi.sourceforge.net/DTD/sodipodi-0.dtd"
   xmlns="http://www.w3.org/2000/svg"
   xmlns:svg="http://www.w3.org/2000/svg">
  <sodipodi:namedview
     id="namedview2195"
     pagecolor="#ffffff"
     bordercolor="#666666"
     borderopacity="1.0"
     inkscape:pageshadow="2"
     inkscape:pageopacity="0.0"
     inkscape:pagecheckerboard="0"
     inkscape:document-units="mm"
     showgrid="false"
     inkscape:zoom="0.69130191"
     inkscape:cx="-239.40336"
     inkscape:cy="137.42187"
     inkscape:window-width="1920"
     inkscape:window-height="1043"
     inkscape:window-x="0"
     inkscape:window-y="0"
     inkscape:window-maximized="1"
     inkscape:current-layer="layer1" />
  <defs
     id="defs2190" />
  <g
     inkscape:label="Layer 1"
     inkscape:groupmode="layer"
     id="layer1"
     transform="translate(-168.57068,-111.92419)">
    <path
       id="path223086"
       style="fill:#050505;stroke-width:0.264583"
       sodipodi:type="inkscape:offset"
       inkscape:radius="1.0299824"
       inkscape:original="M -301.74609 -85.59375 L -311.40234 -85.509766 L -363.6582 -53.541016 C -392.39856 -35.958039 -416.68776 -21.062624 -417.63477 -20.441406 C -418.92917 -19.592305 -419.53978 -18.976805 -420.09375 -17.958984 C -422.33082 -13.848749 -420.275 -9.2663293 -415.78125 -8.3476562 C -413.80729 -7.9441112 -412.81537 -8.2545981 -409.34766 -10.357422 L -406.51953 -12.070312 L -406.51953 4.5898438 L -406.51953 21.25 L -411.48047 21.251953 C -416.95923 21.253583 -418.01421 21.433976 -419.3418 22.599609 C -421.90937 24.853967 -421.41759 29.31036 -418.44922 30.679688 L -417.38086 31.171875 L -417.375 39.849609 L -417.36719 48.525391 L -416.71875 49.175781 L -416.06836 49.824219 L -351.36719 49.824219 C -287.01732 49.824219 -286.66105 49.821202 -286.13477 49.294922 C -285.6106 48.770332 -285.60547 48.412979 -285.60547 7.9746094 C -285.60547 -29.610684 -285.6395 -32.853 -286.04297 -33.298828 C -286.43209 -33.728792 -286.94839 -33.783203 -290.67383 -33.783203 L -294.86523 -33.783203 L -294.86523 -53.230469 L -294.86523 -72.677734 L -292.68359 -72.683594 C -291.14123 -72.6877 -290.18668 -72.830854 -289.43164 -73.173828 C -288.00658 -73.821146 -286.28706 -75.817909 -285.86914 -77.310547 C -284.87508 -80.86099 -287.12183 -84.599689 -290.71875 -85.380859 C -291.63606 -85.580079 -295.2776 -85.65027 -301.74609 -85.59375 z M -310.12695 -82.730469 L -301.37109 -82.728516 C -296.55582 -82.726915 -292.16109 -82.650714 -291.60352 -82.558594 C -289.25 -82.169733 -287.95411 -79.702746 -288.98633 -77.578125 C -289.93559 -75.624274 -290.13977 -75.587891 -299.9043 -75.587891 L -308.43359 -75.587891 L -309.78516 -74.751953 C -312.52312 -73.059456 -412.21632 -12.064816 -412.9668 -11.623047 C -413.0931 -11.548696 -413.56961 -11.405696 -414.02539 -11.304688 C -416.77968 -10.694287 -418.87432 -13.444977 -417.69141 -16.119141 C -417.17509 -17.286364 -416.89791 -17.46099 -374.07617 -43.632812 C -350.374 -58.119123 -326.28968 -72.842375 -320.55469 -76.351562 L -310.12695 -82.730469 z M -301.48047 -72.701172 L -299.69531 -72.623047 L -297.9082 -72.544922 L -297.83984 -53.164062 L -297.77344 -33.783203 L -299.62695 -33.783203 L -301.48047 -33.783203 L -301.48047 -53.242188 L -301.48047 -72.701172 z M -306.07617 -72.677734 L -304.65625 -72.677734 L -304.65625 -53.230469 L -304.65625 -33.783203 L -312.52734 -33.777344 C -321.3651 -33.770819 -321.73062 -33.705195 -323.36328 -31.845703 C -325.35967 -29.571938 -324.56993 -25.596709 -321.875 -24.353516 L -320.80859 -23.861328 L -320.80078 -19.695312 L -320.79492 -15.527344 L -324.89844 -15.527344 L -329 -15.527344 L -328.93164 -37.550781 L -328.86523 -59.572266 L -318.18164 -66.125 C -307.71355 -72.544925 -307.468 -72.677734 -306.07617 -72.677734 z M -332.04688 -57.595703 C -331.9706 -57.595703 -331.9082 -48.131406 -331.9082 -36.5625 L -331.9082 -15.527344 L -333.75977 -15.527344 L -335.61133 -15.527344 L -335.61133 -35.480469 L -335.61133 -55.431641 L -333.89844 -56.513672 C -332.95612 -57.108799 -332.12318 -57.595703 -332.04688 -57.595703 z M -338.98438 -53.388672 C -338.54536 -53.632359 -338.52148 -52.660672 -338.52148 -34.605469 L -338.52148 -15.564453 L -345.75391 -15.480469 L -352.98438 -15.394531 L -354.26172 -14.601562 C -357.536 -12.567098 -357.49637 -8.0643136 -354.1875 -6.1347656 L -352.82812 -5.3398438 L -352.81836 -1.1738281 L -352.80859 2.9941406 L -357.83789 2.9941406 L -362.86719 2.9941406 L -362.79883 -17.931641 L -362.73242 -38.857422 L -351.08984 -45.994141 C -344.68693 -49.919873 -339.23904 -53.247332 -338.98438 -53.388672 z M -365.77344 -37.019531 L -365.77344 -17.013672 L -365.77344 2.9941406 L -367.62695 2.9941406 L -369.47852 2.9941406 L -369.47852 -15.898438 L -369.47852 -34.791016 L -368.2207 -35.521484 C -367.52948 -35.923191 -366.69656 -36.425777 -366.36914 -36.636719 L -365.77344 -37.019531 z M -372.56836 -32.724609 C -372.46928 -32.724609 -372.38867 -24.68789 -372.38867 -14.865234 L -372.38867 2.9941406 L -378.61523 2.9941406 C -386.22072 2.9941406 -387.02736 3.2193765 -388.29102 5.6953125 C -389.49619 8.0566295 -388.58584 11.060059 -386.29492 12.275391 L -385.08789 12.914062 L -385.08789 17.082031 L -385.08789 21.25 L -390.91016 21.25 L -396.73047 21.25 L -396.73047 1.5957031 L -396.73047 -18.058594 L -384.74023 -25.392578 C -378.14537 -29.425663 -372.66746 -32.724609 -372.56836 -32.724609 z M -304.14258 -30.873047 L -288.51562 -30.873047 L -288.51562 -28.755859 L -288.51562 -26.640625 L -304.19141 -26.65625 C -312.81352 -26.665473 -320.12936 -26.778162 -320.44727 -26.90625 C -321.49775 -27.329501 -321.93892 -28.940591 -321.25 -29.837891 C -320.46804 -30.856366 -320.18682 -30.873047 -304.14258 -30.873047 z M -317.87695 -23.728516 L -303.19531 -23.728516 L -288.51367 -23.728516 L -288.58008 11.527344 L -288.64844 46.78125 L -351.41992 46.849609 L -414.19336 46.916016 L -414.19336 39.109375 L -414.19336 31.304688 L -398.60156 31.304688 C -384.78023 31.304688 -382.96231 31.257242 -382.59375 30.888672 C -382.23257 30.527532 -382.17773 29.327307 -382.17773 21.759766 L -382.17773 13.046875 L -366.56836 13.046875 C -351.31072 13.046875 -350.94494 13.036738 -350.42773 12.519531 C -349.92027 12.012089 -349.89844 11.636519 -349.89844 3.3964844 L -349.89844 -5.1953125 L -334.29883 -5.2675781 C -320.55869 -5.3312481 -318.64781 -5.3911364 -318.2832 -5.7558594 C -317.92409 -6.1151024 -317.86905 -7.3324999 -317.87305 -14.949219 L -317.87695 -23.728516 z M -399.79102 -16.056641 C -399.70843 -16.056641 -399.64062 -7.6615618 -399.64062 2.5976562 L -399.64062 21.25 L -401.49219 21.25 L -403.34375 21.25 L -403.33984 3.5898438 L -403.33398 -14.072266 L -401.63867 -15.064453 C -400.70536 -15.610156 -399.87362 -16.056641 -399.79102 -16.056641 z M -336.51562 -12.351562 L -320.79492 -12.351562 L -320.79492 -10.367188 L -320.79492 -8.3828125 L -336.61133 -8.3828125 C -353.79191 -8.3828125 -353.33699 -8.3440794 -353.71094 -9.8339844 C -353.90434 -10.604557 -353.31195 -11.939631 -352.66602 -12.1875 C -352.43045 -12.277894 -345.16222 -12.351562 -336.51562 -12.351562 z M -384.58398 5.9042969 L -368.68555 5.9042969 L -352.78711 5.9042969 L -352.86523 7.9550781 L -352.94141 10.005859 L -368.55273 10.064453 C -379.49827 10.106013 -384.32038 10.035798 -384.69141 9.8320312 C -386.04246 9.0900662 -386.28699 7.6073104 -385.23242 6.5527344 L -384.58398 5.9042969 z M -385.08789 24.164062 L -385.08789 26.279297 L -385.08789 28.394531 L -400.93359 28.394531 C -415.63588 28.394531 -416.82045 28.359296 -417.33789 27.929688 C -418.2415 27.17946 -418.32902 25.971929 -417.54688 25.0625 L -416.88477 24.292969 L -400.98633 24.228516 L -385.08789 24.164062 z "
       transform="matrix(0.19242998,0,0,0.19242998,249.78567,128.59678)"
       d="m -301.75586,-86.623047 -9.65625,0.08398 a 1.0300854,1.0300854 0 0 0 -0.52734,0.15039 l -52.25586,31.96875 c -14.37045,8.79165 -27.62844,16.912458 -37.41211,22.91211 -4.89184,2.999825 -8.91536,5.469557 -11.77539,7.228515 -2.86004,1.758958 -4.46968,2.749119 -4.81641,2.976563 -1.36106,0.892828 -2.17628,1.70775 -2.79883,2.851562 -1.25869,2.312643 -1.33294,4.841881 -0.40234,6.916016 0.9306,2.074134 2.86618,3.6767929 5.41211,4.1972654 1.07093,0.2189356 2.07772,0.2494832 3.16992,-0.091797 1.0922,-0.3412801 2.25204,-0.98454 4.00391,-2.046875 l 1.26562,-0.7656255 V 4.5898438 20.220703 l -3.93164,0.002 c -2.75066,8.19e-4 -4.40928,0.03725 -5.66211,0.251953 -1.25283,0.214706 -2.13326,0.69688 -2.8789,1.351563 -3.12229,2.741405 -2.56028,8.081812 1.14062,9.789062 l 0.4707,0.216797 0.006,8.017578 0.008,8.675782 a 1.0300854,1.0300854 0 0 0 0.30078,0.726562 l 0.64843,0.650391 a 1.0300854,1.0300854 0 0 0 0.002,0.002 l 0.65039,0.648437 a 1.0300854,1.0300854 0 0 0 0.72656,0.300782 h 64.70117 c 32.17495,0 48.34908,2.21e-4 56.5586,-0.06641 4.10476,-0.03331 6.20843,-0.08215 7.37695,-0.160156 0.58426,-0.039 0.93174,-0.07711 1.25195,-0.164062 0.32022,-0.08695 0.68729,-0.353299 0.77344,-0.439453 0.0859,-0.08596 0.31227,-0.363362 0.41406,-0.644532 0.10179,-0.28117 0.14448,-0.563521 0.18555,-0.972656 0.0821,-0.81827 0.1286,-2.17763 0.16211,-4.791016 0.067,-5.226772 0.0684,-15.421396 0.0684,-35.6406246 0,-18.7929574 -0.007,-28.9974604 -0.0664,-34.5742184 -0.0295,-2.78838 -0.0721,-4.41539 -0.13476,-5.41211 -0.0626,-0.99672 0.0109,-1.411868 -0.50196,-1.978515 -0.16606,-0.183499 -0.43929,-0.397231 -0.74023,-0.519532 -0.30094,-0.1223 -0.60764,-0.17777 -0.98047,-0.216796 -0.74566,-0.07805 -1.80609,-0.08594 -3.67383,-0.08594 h -3.16211 v -18.417969 -18.419922 l 1.1543,-0.0039 c 1.60496,-0.0043 2.72138,-0.1485 3.67578,-0.582031 0.93358,-0.42407 1.78064,-1.16638 2.51367,-2.017578 0.73304,-0.851199 1.33954,-1.794628 1.61524,-2.779297 1.15331,-4.119234 -1.44701,-8.446574 -5.62305,-9.353516 -0.71037,-0.154277 -1.78027,-0.190849 -3.63086,-0.226562 -1.85059,-0.03571 -4.38534,-0.03807 -7.625,-0.0098 z m -8.08008,4.921875 8.46485,0.002 c 2.4023,7.99e-4 4.70057,0.02016 6.46289,0.05078 0.88115,0.01531 1.62829,0.03493 2.18359,0.05469 0.5553,0.01976 1.0059,0.0595 0.95313,0.05078 1.72225,0.28456 2.60657,1.97766 1.85937,3.515625 -0.23152,0.476539 -0.37365,0.705331 -0.50195,0.822266 -0.1283,0.116935 -0.31967,0.234201 -0.91016,0.341797 -1.18098,0.215192 -3.69909,0.246093 -8.58008,0.246093 h -8.52929 a 1.0300854,1.0300854 0 0 0 -0.54102,0.154297 l -1.35156,0.835938 v -0.002 c -1.32023,0.816113 -26.97275,16.515851 -52.33203,32.03125 -12.67964,7.757699 -25.2985,15.476436 -34.79297,21.283203 -4.74724,2.903383 -8.71261,5.32965 -11.51563,7.042969 -1.4015,0.856659 -2.51335,1.534604 -3.28515,2.005859 -0.7718,0.471255 -1.27594,0.778023 -1.23828,0.755859 0.17608,-0.103657 -0.0162,-2.97e-4 -0.17969,0.04883 -0.16346,0.04913 -0.37645,0.105697 -0.57813,0.150391 -1.00421,0.222552 -1.77159,-0.141614 -2.26757,-0.792969 -0.49599,-0.651354 -0.682,-1.5877 -0.23438,-2.599609 0.0596,-0.134658 0.0478,-0.119192 0.11328,-0.197266 0.0655,-0.07807 0.23186,-0.243302 0.58399,-0.513671 0.70424,-0.540739 2.1182,-1.489349 4.85351,-3.214844 5.47063,-3.450991 16.24931,-10.039105 37.66016,-23.125 23.70223,-14.486348 47.78547,-29.208939 53.52148,-32.71875 z m 3.75977,10.052734 h 0.39062 v 18.417969 18.417969 l -6.84179,0.0059 c -4.42142,0.0033 -6.71708,0.0047 -8.30078,0.28711 -1.58371,0.28238 -2.47109,1.040271 -3.3086,1.99414 -2.47795,2.822229 -1.5537,7.546459 1.83008,9.107422 l 0.46875,0.216797 0.008,3.507813 0.004,3.136718 h -3.07227 -3.06836 l 0.0645,-20.990234 0.0644,-21.447266 10.19531,-6.251953 c 5.23369,-3.209741 7.92131,-4.851402 9.4082,-5.65625 0.74345,-0.402424 1.17706,-0.587469 1.44336,-0.666015 0.26631,-0.07855 0.38327,-0.08008 0.71485,-0.08008 z m 5.625,0.02344 0.71094,0.03125 0.80468,0.03516 0.0664,18.398438 0.0625,18.347656 h -0.82031 -0.82422 v -18.429688 z m -32.57227,15.783203 c 0.0161,1.060172 0.0326,2.560252 0.0449,4.431641 0.0251,3.808753 0.041,9.065055 0.041,14.847656 v 20.005859 h -0.82227 -0.82226 v -18.923828 -19.382812 l 1.23437,-0.779297 c 0.12318,-0.07779 0.2064,-0.12611 0.32422,-0.199219 z m -6.64844,4.072266 c 0.0199,0.332028 0.0411,0.384595 0.0547,0.935547 0.0601,2.438456 0.0664,7.201368 0.0664,16.228515 v 18.023438 l -6.21484,0.07227 -7.23047,0.08594 a 1.0300854,1.0300854 0 0 0 -0.53125,0.154297 l -1.27735,0.792969 c -1.92805,1.19799 -2.93526,3.186508 -2.91797,5.15625 0.0173,1.9693101 1.06238,3.9346029 3.01563,5.0742182 l 0.84961,0.4980469 0.01,3.5761719 0.008,3.1367188 h -3.99805 -3.99609 l 0.0645,-19.8925778 0.0644,-20.351563 11.1543,-6.835937 c 3.20103,-1.962607 6.162,-3.777368 8.35547,-5.117188 1.04496,-0.638288 1.88521,-1.148892 2.52343,-1.537109 z m -27.13085,16.595703 v 18.160156 18.9785158 h -0.82422 -0.82227 V -15.898438 -34.197266 l 0.7461,-0.433593 c 0.33455,-0.194431 0.57425,-0.346856 0.90039,-0.542969 z m -6.72071,4.189453 c 0.0193,0.886042 0.0378,2.029371 0.0527,3.515625 0.0325,3.231767 0.0527,7.695005 0.0527,12.603516 V 1.9648438 h -5.19726 c -3.81292,-10e-8 -5.93334,0.023796 -7.49219,0.4589843 -1.55885,0.4351883 -2.43514,1.4969911 -3.10156,2.8027344 -1.46141,2.8633619 -0.38008,6.4673685 2.43164,7.9589845 l 0.66015,0.349609 v 3.546875 3.138672 h -4.79297 -4.79101 V 1.5957031 -17.480469 l 11.49805,-7.033203 c 3.29577,-2.015533 6.31234,-3.848684 8.51562,-5.175781 0.90776,-0.546772 1.57109,-0.942823 2.16406,-1.294922 z m 69.38086,1.140625 h 14.59766 v 1.087891 1.083984 l -14.64453,-0.01367 c -4.30688,-0.0046 -8.28924,-0.03485 -11.22852,-0.08008 -1.46964,-0.02261 -2.67893,-0.04977 -3.5332,-0.07813 -0.42714,-0.01418 -0.76677,-0.02873 -0.9961,-0.04297 -0.0654,-0.0041 -0.0971,-0.008 -0.14257,-0.01172 -0.14798,-0.07635 -0.33718,-0.273297 -0.41797,-0.568359 -0.0861,-0.314341 -0.0242,-0.615907 0.0742,-0.744141 0.17815,-0.232042 0.0943,-0.18033 0.29101,-0.253906 0.19667,-0.07358 0.7365,-0.180707 1.78516,-0.24414 2.09732,-0.126867 6.19308,-0.134766 14.21484,-0.134766 z m -12.70508,7.144531 h 13.65235 13.65039 l -0.0645,34.22461 -0.0664,34.226562 -61.7461,0.06836 -61.74218,0.06445 v -6.775391 -6.775391 h 14.5625 c 6.91184,0 10.82031,-0.01166 13.07617,-0.07031 1.12793,-0.02933 1.83708,-0.06699 2.34961,-0.132813 0.51253,-0.06582 0.92686,-0.129974 1.31055,-0.513671 0.28279,-0.282766 0.4245,-0.662938 0.5,-1.042969 0.0755,-0.380032 0.11406,-0.831576 0.14453,-1.5 0.0609,-1.336848 0.0723,-3.528195 0.0723,-7.314453 v -7.683594 h 14.58008 c 7.62905,0 11.52614,-0.0018 13.63086,-0.07031 1.05236,-0.03427 1.65146,-0.07547 2.13086,-0.177734 0.4794,-0.10226 0.93639,-0.409043 1.10742,-0.580078 0.16918,-0.169169 0.43025,-0.515956 0.55078,-0.902344 0.12054,-0.386388 0.16669,-0.799686 0.20313,-1.427734 0.0729,-1.2560972 0.0762,-3.4005578 0.0762,-7.5214846 v -7.5664063 l 14.57422,-0.068359 c 6.87134,-0.031841 10.78281,-0.061508 13.05078,-0.1308594 1.13399,-0.034676 1.85227,-0.077299 2.36914,-0.1445313 0.51687,-0.067233 0.92109,-0.1143277 1.32031,-0.5136719 0.28611,-0.286218 0.42333,-0.6656294 0.49805,-1.046875 0.0747,-0.3812455 0.11445,-0.8384449 0.14453,-1.5117187 0.0602,-1.3465476 0.0704,-3.5524115 0.0684,-7.3632815 z m -83.91211,8.320313 c 0.0169,0.934254 0.0319,2.200458 0.0449,3.810547 0.0272,3.3769746 0.0449,8.0386755 0.0449,13.1660152 V 20.220703 h -0.82227 -0.82226 l 0.004,-16.6308592 0.006,-17.0722658 1.18555,-0.693359 c 0.13583,-0.07942 0.23009,-0.129162 0.35937,-0.203125 z m 64.24415,3.05664 h 14.6914 v 0.955078 0.9550786 h -14.78711 c -8.59106,0 -12.80405,0.00239 -14.76562,-0.1640625 -0.94429,-0.080131 -1.26642,-0.2349665 -1.25977,-0.2226562 -0.0143,-0.049153 -0.034,-0.1170727 -0.0762,-0.2851559 -0.002,-0.0082 0.0133,-0.396287 0.15039,-0.705078 0.12415,-0.27969 0.31128,-0.409442 0.24023,-0.396485 0.0384,-0.0022 0.0595,-0.0036 0.10938,-0.0059 0.22438,-0.01005 0.55776,-0.01958 0.97851,-0.0293 0.84152,-0.01943 2.03892,-0.0379 3.5,-0.05274 2.92218,-0.02966 6.89838,-0.04883 11.21876,-0.04883 z m -47.64063,18.2558598 h 15.4707 14.82813 l -0.0371,0.9824218 -0.0391,1.0644532 -14.62305,0.054687 c -5.46999,0.02077 -9.40856,0.012251 -12.01563,-0.025391 -1.30353,-0.018821 -2.27635,-0.044761 -2.92773,-0.078125 -0.32569,-0.016682 -0.57255,-0.035542 -0.72461,-0.052734 -0.15206,-0.017192 -0.32594,-0.144311 0.0293,0.050781 -0.44477,-0.2442537 -0.61029,-0.5321772 -0.65235,-0.7871094 -0.042,-0.2549322 0.0153,-0.5328562 0.34375,-0.8613281 z m -1.96094,18.2636722 v 1.082031 1.085937 h -14.8164 c -7.35033,0 -11.32606,-0.01068 -13.49219,-0.07227 -1.08307,-0.03079 -1.71788,-0.07717 -2.04102,-0.126953 -0.32313,-0.04979 -0.2268,-0.04085 -0.21289,-0.0293 -0.51084,-0.424133 -0.5494,-0.863448 -0.0859,-1.402344 l 0.35546,-0.414063 15.42774,-0.0625 z" />
  </g>
</svg>
