<?xml version="1.0" encoding="UTF-8" standalone="no"?>
<!-- Created with Inkscape (http://www.inkscape.org/) -->

<svg
   width="6.6172857mm"
   height="6.6146321mm"
   viewBox="0 0 6.6172857 6.6146321"
   version="1.1"
   id="svg80"
   sodipodi:docname="whatsapp1.svg"
   inkscape:version="1.1.2 (0a00cf5339, 2022-02-04)"
   xmlns:inkscape="http://www.inkscape.org/namespaces/inkscape"
   xmlns:sodipodi="http://sodipodi.sourceforge.net/DTD/sodipodi-0.dtd"
   xmlns="http://www.w3.org/2000/svg"
   xmlns:svg="http://www.w3.org/2000/svg">
  <sodipodi:namedview
     id="namedview970"
     pagecolor="#ffffff"
     bordercolor="#666666"
     borderopacity="1.0"
     inkscape:pageshadow="2"
     inkscape:pageopacity="0.0"
     inkscape:pagecheckerboard="0"
     inkscape:document-units="mm"
     showgrid="false"
     inkscape:zoom="31.039771"
     inkscape:cx="12.500092"
     inkscape:cy="12.500092"
     inkscape:window-width="1920"
     inkscape:window-height="1011"
     inkscape:window-x="0"
     inkscape:window-y="0"
     inkscape:window-maximized="1"
     inkscape:current-layer="svg80" />
  <defs
     id="defs77" />
  <g
     id="layer1"
     transform="translate(147.77819,-69.23757)"
     style="fill:#65352e;fill-opacity:1">
    <path
       style="fill:#65352e;fill-opacity:1;stroke-width:0.0129401"
       d="m -147.04006,75.84221 c -0.36101,-0.0607 -0.67101,-0.37794 -0.72729,-0.74434 -0.009,-0.0607 -0.0125,-0.88885 -0.0101,-2.61226 l 0.004,-2.52332 0.0365,-0.10353 c 0.10167,-0.28891 0.29578,-0.48302 0.58469,-0.58469 l 0.10352,-0.0365 h 2.58156 2.58157 l 0.10352,0.0365 c 0.28891,0.10167 0.48302,0.29578 0.58469,0.58469 l 0.0365,0.10353 v 2.57509 c 0,2.46129 -0.001,2.57852 -0.0237,2.65273 -0.0722,0.23615 -0.22497,0.43172 -0.42916,0.54954 -0.0356,0.0206 -0.11128,0.0538 -0.16822,0.0739 l -0.10352,0.0365 -2.54274,0.002 c -1.43528,10e-4 -2.57258,-0.003 -2.61126,-0.01 z m 1.13373,-1.35163 0.52172,-0.12374 0.10587,0.0449 c 0.56392,0.23949 1.20103,0.21828 1.74197,-0.058 0.40166,-0.20512 0.70927,-0.51709 0.91073,-0.9236 0.23536,-0.47494 0.27483,-1.02181 0.11066,-1.53341 -0.21447,-0.66833 -0.76521,-1.18449 -1.45055,-1.35948 -0.92554,-0.2363 -1.90787,0.21371 -2.33197,1.06833 -0.12987,0.26168 -0.18914,0.47024 -0.21538,0.75782 -0.0256,0.2809 0.0217,0.61726 0.12383,0.87951 0.0262,0.0674 0.057,0.14632 0.0684,0.17537 0.0204,0.0521 0.0192,0.0599 -0.0854,0.56938 -0.0584,0.28408 -0.106,0.53061 -0.10588,0.54784 2.5e-4,0.0368 0.0342,0.0787 0.0637,0.0787 0.0114,2e-5 0.25541,-0.0557 0.54236,-0.12371 z m 1.1896,-0.37522 c -0.14158,-0.022 -0.34721,-0.0902 -0.49681,-0.1647 l -0.1146,-0.0571 -0.31056,0.0739 c -0.21174,0.0505 -0.31173,0.0692 -0.31424,0.0589 -0.002,-0.008 0.0249,-0.15341 0.0599,-0.32252 l 0.0636,-0.3075 -0.0633,-0.12542 c -0.23726,-0.47048 -0.24118,-1.00292 -0.0108,-1.46317 0.15395,-0.30753 0.39092,-0.54675 0.69829,-0.70495 0.212,-0.10911 0.36438,-0.15355 0.60397,-0.17615 0.57021,-0.0538 1.13757,0.21896 1.4663,0.70485 0.27111,0.40073 0.34523,0.91288 0.19976,1.38034 -0.20733,0.66629 -0.84444,1.12896 -1.54538,1.12225 -0.0676,-5.7e-4 -0.17388,-0.009 -0.23617,-0.0188 z m 1.01627,-0.62676 c 0.0902,-0.034 0.20564,-0.13622 0.28063,-0.24851 0.0653,-0.0978 0.0699,-0.15839 0.0164,-0.21821 -0.0307,-0.0343 -0.0669,-0.049 -0.25557,-0.10347 -0.12092,-0.0349 -0.23927,-0.0636 -0.26302,-0.0637 -0.0351,-2e-4 -0.058,0.0138 -0.12293,0.0756 -0.0439,0.0418 -0.0925,0.0825 -0.10802,0.0906 -0.0752,0.039 -0.16397,0.003 -0.36623,-0.15117 -0.12967,-0.0984 -0.36318,-0.32989 -0.41296,-0.40929 -0.0605,-0.0965 -0.0554,-0.13779 0.0311,-0.25188 0.0537,-0.0709 0.0712,-0.10467 0.0712,-0.13773 0,-0.0387 -0.10443,-0.29531 -0.18232,-0.44799 -0.0315,-0.0617 -0.0969,-0.0947 -0.16316,-0.0822 -0.0654,0.0123 -0.22206,0.17423 -0.27749,0.28688 -0.041,0.0834 -0.0434,0.0959 -0.0432,0.2244 2.4e-4,0.15041 0.0283,0.26557 0.0983,0.40434 0.20784,0.41173 0.72515,0.86972 1.1437,1.01254 0.18946,0.0647 0.4134,0.0727 0.55364,0.0198 z"
       id="path322015" />
  </g>
</svg>
